<?xml version="1.0" encoding="UTF-8"?>
<!DOCTYPE svg PUBLIC "-//W3C//DTD SVG 1.1//EN" "http://www.w3.org/Graphics/SVG/1.1/DTD/svg11.dtd">
<!-- Creator: CorelDRAW 2017 -->
<svg xmlns="http://www.w3.org/2000/svg" xml:space="preserve" width="6.8483in" height="2.20946in" version="1.1" style="shape-rendering:geometricPrecision; text-rendering:geometricPrecision; image-rendering:optimizeQuality; fill-rule:evenodd; clip-rule:evenodd"
viewBox="0 0 6827.9 2202.88"
 xmlns:xlink="http://www.w3.org/1999/xlink">
 <defs>
  <style type="text/css">
   <![CDATA[
    .fil0 {fill:black}
    .fil6 {fill:#0000FE}
    .fil1 {fill:#020202}
    .fil2 {fill:#0DB04A}
    .fil9 {fill:#5F5F5F}
    .fil5 {fill:#616264}
    .fil3 {fill:#83C241}
    .fil7 {fill:#BEBEBE}
    .fil4 {fill:#D9E021}
    .fil8 {fill:#F48120}
   ]]>
  </style>
 </defs>
 <g id="Layer_x0020_1">
  <metadata id="CorelCorpID_0Corel-Layer"/>
  <g id="_2841069323040">
   <path class="fil0" d="M4839.85 1829.21c33.65,7.84 30.64,14.21 95,23.94 12.99,1.97 24.56,0.56 37.34,2.32 47.81,6.58 95.97,-9.2 128.21,-26.26 -4.44,16.6 -30.94,34.03 -47.71,40.07 -21.45,7.73 -50.65,10.36 -82.43,7.93 -24.65,-1.89 -50.27,-9.74 -70.53,-17.26 -14.46,-5.37 -51.92,-19.89 -59.88,-30.74zm1988.05 -501.06l0 10.66c-0.07,53.96 -2.08,173.35 -46.42,186.39 -10.64,3.12 -50.17,1.11 -64.03,1.11 13.75,25.99 65.49,90.1 86.17,117.68 18,23.99 24.28,31.08 24.28,60.66 0,37.6 -119.91,117.92 -158.59,135.88 -152.55,70.83 -357.8,74.8 -496.81,-29.92 -19.78,-14.9 -37.68,-29.85 -53.44,-48.49 -3.7,-4.38 -5.92,-5.82 -9.63,-10.19 -25.1,-29.49 -43.93,-62.75 -61.27,-97.29l-13.21 -26.42c0,28.77 4.39,180.72 -2.23,201.59 -3.93,12.35 -19.52,30.54 -34.58,30.54l-413.47 0c-17.35,0 -36.82,-22.63 -36.82,-39.63l0 -237.79c0,-17 19.46,-39.63 36.82,-39.63l22.66 0 0 -300.07c-19.38,0 -29.37,-0.65 -45.31,-11.32 -27.38,18.33 -39.46,14.15 -73.63,14.15l0 461.43c0,180.73 -67.35,328.97 -190.27,412.78 -101.42,69.15 -200.62,82.62 -322.32,82.62 -97.17,0 -220.07,-53.57 -292.43,-118.17 -87.2,-77.85 -66.06,-67.44 -8.58,-211.03 9.08,-22.69 17.73,-42.37 26.28,-64.32 10.67,-27.39 19.19,-36.78 51,-36.78 -4.47,-6.67 -10.07,-9.15 -16.32,-14.83 -14.79,-13.43 -27.3,-29.41 -39.13,-45.81 -3.57,-4.95 -41,-63.02 -42.43,-70.82 -0.17,-0.92 -0.8,-1.08 -1.24,-1.59 0,43.41 0,86.82 0,130.22 0,19.3 3.29,48.06 -2.65,62.46 -4.86,11.78 -18.05,28.13 -34.16,28.13l-345.5 0c-18.75,0 -33.09,-18.01 -36.82,-33.97 -12.42,3.32 -22.23,14.71 -35.94,20.69 -166.73,72.71 -321.43,5.79 -418.35,-141.24 -13.64,-20.7 -22.54,-47.45 -35.64,-66.29 0,32.38 4.89,165.95 -3.99,191.34 -4.91,14.04 -18.68,29.46 -35.66,29.46l-280.36 0c-28.61,0 -43.33,-38.43 -45.31,-62.28 -7.75,5.19 -10.67,9.81 -17.67,16.31 -43.65,40.61 -95.03,62.74 -154.6,69.09 -36.89,3.94 -84.08,-0.76 -117.22,-8.35 -97.79,-22.37 -169.35,-88.95 -200.83,-184.25 -43.85,-132.75 -33.6,-300.33 -33.6,-444.83 -20.45,0 -31.24,-0.01 -48.14,-11.32 0.94,11.3 4.82,25.58 7.32,37.98 31.44,155.48 -2.65,349.68 -80.96,460.25 -81.21,114.68 -230.82,177.65 -381.16,134.75 -31.23,-8.91 -67.9,-32.25 -74.78,-32.83 -2.89,10.8 -17.42,25.48 -31.15,25.48l-334.17 0c-27.7,0 -39.65,-33.04 -39.65,-62.28l0 -189.67c0,-49.86 19.46,-65.11 62.31,-65.11l0 -716.21c-23.11,0 -39.42,1.35 -52.79,-20.84 -6.78,-11.25 -9.51,-24.54 -9.51,-41.45l0 -192.5c0,-16.25 2.65,-31.34 8.92,-42.04 5.59,-9.53 16.5,-20.23 30.73,-20.23l356.83 0c41.08,0 39.66,52.59 39.65,82.09l0 356.69c78.42,-41.48 191.13,-48.72 274.7,-11.32 35.67,15.96 64.01,36.34 92.62,60.28 13.97,11.69 25.1,25.96 36.82,39.63 11.12,12.98 22.04,30.36 31.46,44.98 21.53,33.44 40.72,89.96 48.67,101.39 0,-50.01 0,-100.02 0,-150.04 0,-33.05 -8.42,-73.08 17.12,-96.12 5.05,-4.56 15.95,-11.45 25.36,-11.45l351.16 0c17.78,0 25.77,15.26 36.82,22.65 6.96,-13.16 16.87,-22.65 36.82,-22.65l368.16 0c29.01,0 45.31,24.27 45.31,53.78l0 560.51 36.82 0c-0.27,-12.32 -3.95,-20.49 -6.09,-33.55 -26.33,-160.87 -4.49,-325.48 93.47,-456.6 85.23,-114.09 265.27,-187.1 411.05,-109.99l0 -113.23c-35.53,0 -67.97,-9.1 -67.97,-50.96l0 -212.31c0,-26.48 14.96,-53.79 39.65,-53.79l368.16 0c20.01,0 36.82,27.14 36.82,48.12l0 985.14 36.82 2.83c-0.27,-11.91 -4.01,-23.86 -6.07,-36.39 -19.87,-120.78 -11.1,-256.02 33.15,-366.83 35.08,-87.84 98.25,-153.18 181.54,-195.03 63.52,-31.92 180.45,-54.15 258.3,-24.17 9.88,3.8 22.99,9.42 32.78,15.35 9.15,5.53 19.36,14.55 29.88,15.43 4.22,-15.79 19.51,-28.31 39.65,-28.31l342.67 0c13.33,0 20.29,8.78 28.32,14.15 12.09,-18.04 30.79,-14.16 59.47,-14.15 23.6,0.01 47.2,0 70.8,0 -4.96,-6.76 -12.97,-10.13 -20.5,-16.31 -98.71,-81 -113.28,-232.29 -29.66,-331.06 38.68,-45.69 86.92,-65.93 154.93,-65.93 81.29,0 144.69,67.71 172.37,136.26 27.12,67.16 19.32,140.05 -11.85,202.53 -12.26,24.57 -28.13,43.56 -49.6,60.82l-20.29 13.69c23.87,0 42.39,-3.14 58,7.14 11.64,7.67 21.3,26.05 21.3,43.82l0 566.17 42.48 2.83c-26.36,-113.11 -22.27,-255.15 17.4,-361.95 20.25,-54.55 45.71,-96.33 79.26,-138.75 33.01,-41.74 75.02,-73.38 123.29,-97.56 123.91,-62.07 288.78,-60.88 409.29,11.74 126.43,76.18 189.21,220.9 189.21,368.55zm-1988.05 501.06l-6.09 -1.55 6.09 1.55zm-11.33 -5.66l0.85 0.84c-0.06,-0.05 -1.13,-0.56 -0.85,-0.84zm1665.21 -260.44c-32.26,0 -102.43,3.82 -113.28,-36.8l218.06 0c-22.68,19.71 -76.62,36.8 -104.78,36.8zm-3265.27 -328.38c25.21,16.87 33.66,11.32 79.29,11.32l0 234.96c0,17.26 -7.31,28.25 -14.62,39.17 -8.41,12.55 -17.26,20.62 -35.31,18.56 -17.53,-2.01 -17.71,-17.79 -20.7,-32.41 -14.82,-72.49 -8.66,-193.52 -8.66,-271.6zm3537.14 244.16l-447.45 0c0.51,39.88 20.82,76.71 41.09,96.92 26.21,26.13 52.29,39.37 103.34,39.94 46.91,0.53 80,-4.97 118.46,-21.96 63.5,-28.04 72.37,-51.46 85.44,-56.41 11.27,10.38 115.52,151.87 119.65,162.98 -42.56,32.19 -48.89,47.07 -107.43,81.62 -40.98,24.19 -88.59,40.3 -142.13,50.59 -120.65,23.17 -226.02,9.48 -316.61,-46.69 -247.6,-153.51 -246.42,-632.3 6.09,-779.12 85.99,-49.99 208.69,-70 316.51,-36.02 102.02,32.16 163.78,93.38 204.56,180.6 20.54,43.94 33.81,100.84 37.88,154.37 2.37,31.26 2.65,158.12 -19.4,173.18zm-1603.62 239.76c-5.8,5.44 -9.82,12.16 -15.01,18.44 -35.21,42.59 -92.64,70.04 -151.34,70.75 -145.25,1.75 -251.1,-70.5 -306.47,-201.7 -26.8,-63.5 -39.71,-136.85 -40.06,-212.88 -1.12,-241.2 107.25,-417.22 331.7,-431.18 121.82,-7.58 152.25,50.16 182.19,66.15l28.21 -50.35 341.59 0.67 -0.86 217.97 -85.36 1.11c0,156.74 -0.02,313.48 0,470.23 0.01,77.63 -4.23,140.14 -25.62,210.02 -9.39,30.66 -21.29,57.24 -35.72,83.18 -15.32,27.56 -31.01,45.9 -49.16,66.91 -104.09,120.44 -350.91,171.86 -530.86,79.39 -98.17,-50.44 -83.63,-58.19 -135.2,-96.84 2.51,-15.48 70.55,-180.2 76.39,-185.7 6.3,4.54 8,7.25 13.06,11.07 70.25,53.07 153.69,97.43 247.5,93.61 60.8,-2.48 98.65,-26.33 125.15,-60.08 32.25,-41.08 30.33,-91.77 29.86,-150.75zm-2323.51 -740.77l346.35 0.41c4.05,42.11 0.64,101.99 0.64,146.03 0,97.83 -8.24,359.62 18.54,423.61 32.21,76.97 134.99,47.58 148.03,-58.96 3.15,-25.75 3.06,-258.31 1,-290.62l-94.36 0 1.08 -220.46 371.11 0.01 0.65 612.75 69.8 0.31 0 221.88 -272.36 0c-1.33,-5.72 -31.87,-94.27 -39.05,-102.63 -10.51,9.59 -25.82,32.89 -34.57,44.81 -4.43,6.04 -4.28,5.93 -9.22,10.67 -38.83,37.36 -77.65,66.7 -145.89,70.2 -108.01,5.55 -184.34,-29.11 -229.64,-85.79 -106.07,-132.69 -60.05,-369.64 -73.05,-551.73l-59.85 -0.2 0.8 -220.29zm2753.23 0.03l332.81 0.07 0.23 616.05 68.73 0.02 0.05 218.81 -402.37 -1.02 0.01 -217.48 60.33 -1.39 -0.03 -397.62 -60.32 -1.15 0.57 -216.3zm-3673.97 -417.49l347.75 0.19 1.37 480.23c33.66,-40.82 104.83,-73.58 179.97,-76.19 377.96,-13.11 431.84,624.04 191.52,804.05 -54.14,40.56 -106.23,63.96 -194.39,62.43 -136.15,-2.37 -160,-63.35 -181.19,-72.71 -8.59,13.95 -12.95,46.48 -25.49,54.41l-319.59 -0.58 1.29 -216.49 59.1 -0.06 -0.35 -816.45 -60 -0.59 0 -218.25zm2267.56 -0.02l357.83 0 -0 1035.07 68.91 0.83 0.06 215.05c-20.78,4.68 -291.82,1.45 -336.48,1.26l-24.8 -59.32c-51.89,42.5 -97.52,74.74 -181.25,74.58 -209.81,-0.39 -328.5,-214.81 -332.46,-428.97 -2.74,-148.48 41.45,-271.34 142.63,-365.26 38.11,-35.37 108.56,-70.2 181.54,-72.32 103.39,-3.01 122.24,25.92 190.09,61.84 0.16,-41.54 5.33,-219.04 -1.66,-245.65l-64.42 0 0 -217.13zm1582.5 4.49c142.59,-18.37 226.84,164.21 144.61,278.35 -22.33,31 -49.19,52.39 -102.39,58.25 -96.75,10.66 -165.16,-61.39 -177.03,-145.23 -13.76,-97.19 52.45,-180.76 134.82,-191.37z"/>
   <path class="fil1" d="M1198.66 1721.88l121.4 -1.2 -0.09 99.38 -120.79 0.04 -0.53 -98.22zm-340.55 -2.11l129 -0.85 0.27 100.47 -128.7 0.79 -0.57 -100.4zm-384.16 0.09l48.42 -0.77 0.21 100.01 -48.19 0.97 -0.44 -100.22zm1211.66 2.28l24.04 -0.51 0.37 95.67 -24.19 0.44 -0.22 -95.59zm-63.79 2.89l36.82 0.12 0.73 92.38 -37.29 0.49 -0.26 -92.98zm-83.97 -3.16l56.97 -0.47 0.61 96.53 -57.32 -0.09 -0.26 -95.98zm-94.56 -1.05l68.24 0.16 -0.01 96.13 -67.8 0.91 -0.43 -97.21zm-96.97 1.84l70.07 -1.33 0.61 96.6 -70.53 -0.22 -0.15 -95.05zm-332.65 -0.99l158.35 -0.21 0.44 96.19 -158.51 0.29 -0.28 -96.26zm-277.58 -0.02l96.24 -0.17 0.39 96.06 -96.36 0.4 -0.27 -96.29zm-96.95 -2.77l70.4 0.19 0.24 97.46 -69.6 0.92 -1.03 -98.57zm-90.27 2.65l63.39 -0.1 0.64 96.51 -63.71 -0.02 -0.32 -96.39zm-127.82 -2.65l26.13 0.08 0.44 98.25 -25.52 0.19 -1.04 -98.52zm851.28 -126.46l119.74 -0.15 0.57 99.12 -119.43 0.27c-3.89,-13.19 -2.98,-83.4 -0.87,-99.24zm485.89 2.19l25.83 -0.02 0.34 94.67 -24.84 0.15 -1.33 -94.8zm-61.71 2.62l35.43 -0.11 -0.01 91.57 -34.3 0.74 -1.12 -92.19zm-85.87 -2.7l59.35 0.09 0.25 94.39 -58.14 0.44 -1.47 -94.92zm-92.46 -1.99l65.83 -0.12 0.37 96.07 -65.18 0.96 -1.01 -96.9zm-99.2 2.34l72.56 -0.31 0.25 94.43 -71.73 0.4 -1.09 -94.52zm-486.84 -3.55l10.88 -0.88 107.62 0.15 10.52 1.12 0.43 98.85 -129.48 1.06 0.02 -100.3zm-308.47 3.86l63.41 -0.59 0.22 94.26 -62.73 0.5 -0.89 -94.18zm-76.62 -3.73l10.82 -1.04 28.34 0.17 11.05 0.36 0.25 100.19 -50.47 0.27 0.02 -99.96zm539.85 3.26l11.89 -0.29 135.23 0.05 10.88 0.63 0.32 92.77 -158.42 1.54 0.09 -94.71zm-278.02 -0.22l96.62 0.05 0.44 94.02 -97.16 0.88 0.1 -94.96zm-96.14 -3.48l69.47 -0.46 0.37 98.81 -3.79 0.02 -66.13 -0.06 0.09 -98.3zm-218.92 -0.42l27.44 0.28 0.58 98.05 -28.09 0.57 0.07 -98.9zm1172.05 -121.75l22.87 -0.19 1.4 95.8 -23.44 0.26 -0.83 -95.86zm-62.4 1.9l35.24 -0.22 0.66 94.04 -34.95 0.11c-3.89,-13.35 -3.09,-78.57 -0.96,-93.93zm-85.4 -1.33l59.03 -0.48c0.41,19.35 2.48,80.81 -1.52,95.13l-56.32 0.78 -1.19 -95.42zm-92.72 -0.67l65.45 -0.5 1.03 96.19 -65.64 0.29 -0.84 -95.99zm-246.39 -0.07l119.74 -0.47c3.31,13.53 3.09,82.4 0.18,96.53l-119.14 0.03 -0.78 -96.1zm-185.23 0.46l158.7 -0.27 0.07 95.79 -157.38 0.17 -1.38 -95.69zm-277.6 -0.03l96.97 -0.27 0.06 95.95 -95.62 0.03 -1.41 -95.71zm-261.28 98.04l-0.84 -99.86 10.39 -1.6 28.35 0.27 11.37 0.58c0.03,20.49 2.59,82.21 -1.74,97.64l-47.53 2.97zm871.69 -98.31l72.27 0.11 0.22 95.08 -72.38 0.68 -0.11 -95.86zm-486.95 -2.87l127.69 0 0.26 98.67 -127.87 0 -0.07 -98.67zm-220.31 0.03l70.66 -0.03 0.02 3.75 -0.01 94.93 -70.53 -0.01 -0.14 -98.64zm-89.89 3.3l63.34 -0.5 0.37 95.85 -63.65 -0.12 -0.06 -95.23zm-128.22 0.42l0.05 -3.73 26.6 0.11 0.01 98.25 -26.52 0.35 -0.15 -94.98zm1211.65 -121.73l0.06 -3.79 24.42 0.11 0.01 94.69 -24.3 0.18 -0.19 -91.19zm-63.39 -0.48l37.21 -1.17 -0.02 92.74 -37.08 -0.22 -0.11 -91.35zm-84.18 -3.31l58.93 0.11 -0.01 94.45 -58.73 0.44 -0.18 -95zm-92.56 0.06l66.31 -0.02 0.01 94.74 -66.17 0.17 -0.16 -94.89zm-99.13 0l72.89 -0.07 0.02 3.8 -0 91.16 -72.75 -0.02 -0.16 -94.87zm-147.57 3.73l0.06 -3.78 121.26 -0.02 0.02 3.79 -0 91.16 -121.17 -0 -0.18 -91.15zm-184.51 -3.67l158.25 -0.12 0.02 94.92 -158.1 0.02 -0.17 -94.82zm-154.77 -2.26l129.51 0.07 0.07 95.42 -129.46 1.67 -0.13 -97.17zm-123.33 3.23l97.09 -1.18 0.02 3.88 -0.01 91.16 -97.03 -0.16 -0.08 -93.7zm-96.94 -2.95l70.56 -0.35 0.16 96.76 -70.62 0.33 -0.1 -96.75zm-88.16 2.1l61.92 -0.02 0 93.78 -61.8 1 -0.13 -94.76zm-76.57 -2.14l50.29 -0.06 0.08 95.62 -50.25 1.33 -0.12 -96.9zm-53.36 0.03l27.96 -0.12 0.14 96.18 -28 0.71 -0.11 -96.77zm1308.59 -126.31l23.83 -0.09 0.51 96.41 -23.27 0.49 -1.07 -96.82zm-147.61 -0.13l58.39 -0.08 0.59 96.63 -57.78 0.46 -1.2 -97.01zm-92.52 0.45l65.69 -0.56 0.51 96.55 -65.38 0.49 -0.82 -96.48zm-99.13 0l72.04 -0.66 0.74 97.03 -71.96 0.09 -0.82 -96.46zm-147.55 -0.21l120.45 -0.44 0.88 98.65 -121.2 0.27 -0.13 -98.48zm-184.43 0l157.38 -0.42 0.65 96.88 -156.96 0.28 -1.06 -96.73zm-154.89 95.06l-0.02 -97.74 129.61 0.07 -0 101.11 -129.58 0.54 -0.02 -3.97zm-123.16 -95.33l96 -0.16 0.81 97.08 -95.51 0.09 -1.3 -97.01zm-261.69 -2.26l50.2 -0.13 0 101.55 -50.17 0.09 -0.04 -101.5zm1147.8 4.58l11.95 -0.3 14.16 0.05 10.48 0.47 0.38 93.46 -37.05 1.01 0.08 -94.69zm-983.31 -4.73l70.62 0 0.14 98.67 -70.41 0 -0.35 -98.67zm-88.07 2.3l61.9 0.01 0 97.06 -61.9 0.05 0 -97.12zm-130.01 -2.3l28.23 0.07 -0.09 98.37 -27.78 0.26 -0.37 -98.71zm821.23 -78.98c6.05,10.43 18.75,18.52 28.51,27.89 14.8,14.21 21.73,10.72 46.42,10.63 18.88,-0.06 37.76,-0 56.64,-0 26.13,-0 41.8,-4.56 52.4,8.88l-306 0.13c8.1,-9.77 -5.44,2.22 5.27,-5.2 3.76,-2.61 4.82,-2.89 8.27,-3.56 14.24,-2.76 41.31,4.79 57.57,-4.78 13.97,-8.22 33.46,-29.1 50.92,-33.99zm-171.45 52.17l-362.49 0c8.02,-6.96 75.6,-26.04 105.41,-41.83l71.7 -35.9c10.3,-5.8 17.62,-8.91 27.7,-14.77 40.56,-23.58 7.28,-27 106.31,13.64l79.69 33.58c-4.77,7.12 -10.75,12.36 -16.69,20.12 -10.54,13.8 -5.26,11.9 -11.63,25.17zm-709.36 -5.66c4.44,-2.81 48,-11.33 55.8,-13.31 183.83,-46.6 314.79,-179.93 316.56,-180.38 5.03,-1.28 155.48,61.29 163.37,69.13 -32.69,33.19 -182.02,84.99 -234.07,99.5 -42.49,11.85 -95.77,20.25 -142.27,24.42 -20.52,1.84 -148.56,6.77 -159.39,0.64zm749.01 -141.04c16.56,-0.11 41.18,-3.37 57.27,-5.94 17.48,-2.79 33.52,-8.19 50.9,-9.73l0 68.96c-4.23,9.77 -32.06,28.73 -43.04,34.22 -17.83,-4.77 -40.67,-16.33 -58.42,-24.08 -50.81,-22.2 -125.51,-49.58 -170.53,-71.37 64.8,4.57 99.26,7.95 163.82,7.94zm-429.59 -114.61c1.27,-9.73 64.44,-78.16 76.87,-91.27 5.55,-5.85 8.18,-7.64 14.49,-13.82 6.71,-6.58 5.58,-7.33 11.15,-14.33l81.12 -88.89c8.72,-11.25 16.23,-15.25 25.81,-27.77l54.33 -59c23.94,-28.45 80.42,-94.19 109.68,-110.9 29.01,-16.56 77.57,-17.03 88.7,-2.22 12.06,16.05 10.82,78.28 6.99,100.92 -29.26,173.14 -231.34,248.44 -379.59,288.4 -17.29,4.66 -73.94,19.55 -89.57,18.89zm312.15 -14.79c-37.59,11.5 -154.05,36.09 -195.27,28.37 63.34,-6.3 216.12,-77.58 271.57,-124.57 19.14,-16.22 32.69,-27.75 50.66,-48.44 13.15,-15.14 29.88,-38.37 40.1,-59.06 38.54,-77.97 25.71,-97.58 28.3,-164.22 46.48,31.19 77.76,76.06 51.65,156.39 -32.84,101.08 -149.33,181.64 -247.02,211.53zm334.76 -328.99c17.71,22.58 39.81,56.65 60.61,39.33 19.99,-16.63 60.73,-71.73 81.58,-96.83l78.52 -97.69 7.22 69.56c7,135.27 -46.04,274.57 -137.61,364.12 -79,77.27 -190.56,139.63 -313.3,139.63 -46.9,0 -210.57,-8.4 -239.58,-20.85 8.42,-4.24 85.3,-15.23 102.34,-19.55 33.16,-8.42 62.38,-18.41 91.61,-30.47 128.46,-53.02 290.13,-222.88 209.06,-361.31 -40.83,-69.73 -59.35,-17.13 -53.1,-119.17l112.66 133.24zm-231.52 -117.43c10.46,-10.23 11.14,-10.13 19.95,-21.91 7.18,-9.59 12.64,-10.98 20.18,-19.42 6.55,-7.34 10.87,-15.73 17.52,-22.16 4.87,-4.71 17.23,-15.97 21.48,-18.34l-0.1 102.09c-13.19,-2.23 -24.05,-8.81 -37.92,-12.07l-41.11 -8.18zm280.83 110.51c-12.29,-8.68 -38.98,-42.63 -50.71,-56.72 -52.52,-63.09 -113.08,-112.97 -110.91,-208.82 0.93,-41.06 10.33,-158.73 22.58,-189.65 20.25,-51.11 66.58,-76.23 135.77,-76.13 71.36,0.09 117.44,22.02 139.81,75.2 10.6,25.19 22.3,153.36 22.29,190.59 -0.01,69.22 -27.25,113.56 -61.46,151.48l-97.37 114.05zm-770.72 371.39c0,23.36 -2.16,26.52 29.1,30.36 16.71,2.05 26.63,3.61 44.53,3.61 -6.12,9.14 -48.38,42.23 -58.89,48.71 -36.63,22.6 -62.79,41.49 -104.16,60.07 -40.24,18.08 -75.47,32.46 -121.81,42.43 -69.53,14.96 -74.17,14.23 -139.19,22.22 -13.25,1.63 -35.52,4.66 -49.14,7.49 -15.03,3.12 -33.77,3.26 -48.41,5.4l-94.99 12.62c-14.85,2.42 -34.77,3.29 -34.77,21.86 0,13.7 8.96,22.65 22.66,22.65l342.67 0 0 90.59c-30.79,0 -45.31,-4.33 -45.31,8.49l0 141.54c0,13.52 18.96,8.49 53.81,8.49l0 121.73 84.96 0c6.53,0 8.5,1.97 8.5,8.49l0 87.76 -73.63 0 0 158.53 1345.19 0 0 -130.22 76.46 0 0 -147.2c0,-6.52 -1.97,-8.49 -8.49,-8.49l-84.96 0 0 -124.56 -56.64 0 0 -99.08 48.14 0 0 -152.87 -269.04 0c-1.7,-20.43 -15.61,-35.12 -31.07,-45.37 -35.53,-23.54 -90.26,-4.42 -141.5,-11.42 -13.8,-1.89 -17.34,-11.59 -34.31,-25.15 -4.3,-3.43 -8.35,-3.82 -8.35,-11.48l0 -76.43c0,-8.44 1.86,-5.56 14.35,-11.13l85.72 -44.54c41.62,-22.91 94.27,-73.48 124.13,-110.89 27.08,-33.92 50.18,-76.64 68.45,-115.58l27.65 -77.1c19.41,-86.47 25.37,-129.39 11.9,-221.94 -2.47,-16.98 -3.51,-22.88 -3.6,-41.69l-12.28 -120.77c-3.71,-25 -6.83,-53.75 -7.54,-83.05 -1.31,-53.78 -13.99,-95.01 -44.96,-133.4 -25.49,-31.61 -83.68,-56.19 -122.2,-56.19 -47.14,0 -50.5,-3.56 -93.13,8.82 -24.07,6.99 -14.34,2.51 -38.02,15.78 -22.63,12.68 -41.42,28.01 -54.63,50.13 -32.5,54.44 -28.42,111.35 -34.85,177.48 -1.54,15.85 -3.51,32.54 -5.07,45.88 -3.94,33.71 0.57,16.02 -17.01,36.79l-150.26 166.86c-2.42,2.43 -3.17,3.18 -5.52,5.8l-232.2 254.8c-5.68,6.79 -6.22,8.84 -12.82,15.5l-111.94 123.07c-6.33,7.19 -37.5,36.43 -37.5,44.61z"/>
   <path class="fil2" d="M5042.27 1180.56c83.97,-22.13 113.63,120.8 117.31,184.32 12.04,207.8 -106.85,298.69 -175.72,164.64 -46.27,-90.07 -44.43,-321.85 58.41,-348.96zm119.7 538.09c0.47,58.98 2.39,109.68 -29.86,150.75 -26.5,33.75 -64.35,57.6 -125.15,60.08 -93.81,3.82 -177.25,-40.54 -247.5,-93.61 -5.06,-3.82 -6.76,-6.53 -13.06,-11.07 -5.84,5.5 -73.88,170.22 -76.39,185.7 51.57,38.65 37.03,46.4 135.2,96.84 179.95,92.46 426.76,41.04 530.86,-79.39 18.15,-21 33.84,-39.34 49.16,-66.91 14.43,-25.95 26.33,-52.52 35.72,-83.18 21.4,-69.88 25.63,-132.39 25.62,-210.02 -0.02,-156.74 0,-313.48 0,-470.23l85.36 -1.11 0.86 -217.97 -341.59 -0.67 -28.21 50.35c-29.94,-16 -60.37,-73.73 -182.19,-66.15 -224.45,13.97 -332.82,189.98 -331.7,431.18 0.35,76.03 13.26,149.38 40.06,212.88 55.37,131.2 161.22,203.45 306.47,201.7 58.71,-0.71 116.13,-28.16 151.34,-70.75 5.19,-6.27 9.21,-12.99 15.01,-18.44z"/>
   <path class="fil2" d="M4133.14 1180.51c84.12,-21.93 113.62,121.44 117.23,184.46 2.79,48.8 0.1,97.19 -14.5,140.74 -11.89,35.44 -37.28,74.37 -68.9,83.91 -25.3,7.63 -48.02,-3.1 -60.92,-14.88 -83.69,-76.43 -87.13,-364.44 27.1,-394.22zm52.13 -402.98l64.42 0c7,26.61 1.82,204.11 1.66,245.65 -67.85,-35.92 -86.7,-64.85 -190.09,-61.84 -72.97,2.13 -143.43,36.95 -181.54,72.32 -101.18,93.92 -145.37,216.78 -142.63,365.26 3.95,214.16 122.65,428.58 332.46,428.97 83.72,0.15 129.36,-32.09 181.25,-74.58l24.8 59.32c44.66,0.19 315.7,3.42 336.48,-1.26l-0.06 -215.05 -68.91 -0.83 0 -1035.07 -357.83 0 0 217.13z"/>
   <path class="fil2" d="M2348.21 1202.84c45.07,-14.29 76.47,31.93 90.13,60.19 54.35,112.46 32.47,327.37 -55.76,349.11 -84.96,20.93 -114.34,-108.31 -118.96,-184.8 -5.59,-92.49 12.46,-201.63 84.59,-224.49zm-430.5 -424.17l60 0.59 0.35 816.45 -59.1 0.06 -1.29 216.49 319.59 0.58c12.53,-7.93 16.89,-40.46 25.49,-54.41 21.18,9.35 45.03,70.33 181.19,72.71 88.16,1.53 140.25,-21.88 194.39,-62.43 240.32,-180.02 186.44,-817.17 -191.52,-804.05 -75.14,2.61 -146.31,35.37 -179.97,76.19l-1.37 -480.23 -347.75 -0.19 0 218.25z"/>
   <path class="fil2" d="M2837.66 1198.17l59.85 0.2c13,182.08 -33.03,419.04 73.05,551.73 45.31,56.68 121.63,91.34 229.64,85.79 68.24,-3.5 107.06,-32.84 145.89,-70.2 4.93,-4.75 4.78,-4.63 9.22,-10.67 8.75,-11.92 24.07,-35.22 34.57,-44.81 7.18,8.36 37.73,96.92 39.05,102.63l272.36 0 0 -221.88 -69.8 -0.31 -0.65 -612.75 -371.11 -0.01 -1.08 220.46 94.36 0c2.05,32.31 2.15,264.88 -1,290.62 -13.04,106.54 -115.82,135.93 -148.03,58.96 -26.78,-63.99 -18.54,-325.78 -18.54,-423.61 0,-44.04 3.41,-103.92 -0.64,-146.03l-346.35 -0.41 -0.8 220.29z"/>
   <path class="fil2" d="M6321.73 1313.22c3.19,-71.18 39.61,-132.58 109.65,-133.24 77.89,-0.74 108.53,56.06 106.43,133.5l-216.08 -0.26zm443.86 165.67c22.05,-15.06 21.77,-141.92 19.4,-173.18 -4.06,-53.53 -17.33,-110.43 -37.88,-154.37 -40.78,-87.22 -102.54,-148.44 -204.56,-180.6 -107.82,-33.99 -230.52,-13.97 -316.51,36.02 -252.51,146.82 -253.69,625.6 -6.09,779.12 90.59,56.17 195.97,69.86 316.61,46.69 53.54,-10.28 101.15,-26.4 142.13,-50.59 58.54,-34.55 64.87,-49.43 107.43,-81.62 -4.13,-11.11 -108.38,-152.6 -119.65,-162.98 -13.07,4.95 -21.94,28.37 -85.44,56.41 -38.47,16.99 -71.56,22.49 -118.46,21.96 -51.05,-0.57 -77.14,-13.81 -103.34,-39.94 -20.26,-20.21 -40.57,-57.04 -41.09,-96.92l447.45 0z"/>
   <polygon class="fil2" points="5591.11,1194.22 5651.43,1195.37 5651.47,1592.98 5591.13,1594.37 5591.12,1811.85 5993.49,1812.87 5993.45,1594.06 5924.72,1594.03 5924.49,977.98 5591.68,977.92 "/>
   <path class="fil3" d="M1186.47 448.27c-6.25,102.04 12.27,49.43 53.1,119.17 81.07,138.44 -80.6,308.29 -209.06,361.31 -29.22,12.06 -58.45,22.05 -91.61,30.47 -17.04,4.33 -93.92,15.31 -102.34,19.55 29.01,12.45 192.68,20.85 239.58,20.85 122.74,0 234.3,-62.36 313.3,-139.63 91.57,-89.55 144.61,-228.85 137.61,-364.12l-7.22 -69.56 -78.52 97.69c-20.85,25.1 -61.58,80.2 -81.58,96.83 -20.81,17.31 -42.91,-16.75 -60.61,-39.33l-112.66 -133.24z"/>
   <path class="fil4" d="M1326.91 211.16c61.96,-11.21 118.61,19.22 105.4,83.27 -4.01,19.43 -24.42,47.84 -34.64,64.32 -19.91,32.1 -43.69,92.25 -69.07,54.64l-55.52 -91.82c-29.83,-54.03 -15.78,-97.83 53.84,-110.42zm131.63 -64.26c15.27,-6.21 24.31,6.97 24.67,23.23 0.44,19.7 3.34,36.71 -12.1,41.21 -36.09,10.5 -35.52,-55.11 -12.57,-64.44zm-229.39 -0.05c31.9,-9 32.54,58.48 10.05,64.85 -19.85,5.62 -26.34,-10.68 -27.13,-27.25 -0.89,-18.77 -0.23,-32.71 17.08,-37.6zm119.3 427.74l97.37 -114.05c34.21,-37.93 61.45,-82.27 61.46,-151.48 0.01,-37.23 -11.69,-165.4 -22.29,-190.59 -22.37,-53.18 -68.45,-75.1 -139.81,-75.2 -69.19,-0.1 -115.52,25.03 -135.77,76.13 -12.25,30.91 -21.65,148.59 -22.58,189.65 -2.16,95.86 58.39,145.73 110.91,208.82 11.73,14.09 38.42,48.04 50.71,56.72z"/>
   <path class="fil2" d="M5767.77 564.89c-82.37,10.61 -148.58,94.18 -134.82,191.37 11.87,83.84 80.28,155.89 177.03,145.23 53.2,-5.86 80.06,-27.25 102.39,-58.25 82.23,-114.14 -2.02,-296.72 -144.61,-278.35z"/>
   <path class="fil5" d="M652.22 925.29c15.63,0.66 72.28,-14.23 89.57,-18.89 148.24,-39.96 350.33,-115.27 379.59,-288.4 3.82,-22.64 5.07,-84.87 -6.99,-100.92 -11.13,-14.81 -59.7,-14.34 -88.7,2.22 -29.26,16.71 -85.74,82.45 -109.68,110.9l-54.33 59c-9.58,12.52 -17.09,16.52 -25.81,27.77l-81.12 88.89c-5.57,7 -4.44,7.74 -11.15,14.33 -6.31,6.19 -8.95,7.97 -14.49,13.82 -12.44,13.12 -75.6,81.54 -76.87,91.27z"/>
   <path class="fil0" d="M4148.84 1540.46c-37.71,0 -59.47,-93.62 -59.47,-130.22 0,-58.71 -3.69,-113.59 27.68,-164.83 31.72,-51.8 62.1,7.93 75.53,41.85 13.49,34.05 10.2,55.05 13.17,97.47 2.01,28.82 -0.82,66.04 -8.73,93.49 -5.77,20.05 -24.26,62.24 -48.18,62.24zm-15.7 -359.95c-114.23,29.78 -110.79,317.79 -27.1,394.22 12.9,11.79 35.62,22.51 60.92,14.88 31.63,-9.54 57.02,-48.47 68.9,-83.91 14.61,-43.54 17.3,-91.93 14.5,-140.74 -3.61,-63.02 -33.11,-206.39 -117.23,-184.46z"/>
   <path class="fil0" d="M5057.91 1540.46c-38.27,0 -59.48,-95.07 -59.48,-135.88l0 -48.13c0,-83.75 50.68,-204.17 102.81,-71.62 18.85,47.92 17.32,145.59 4.87,193.41 -5.38,20.65 -24.55,62.22 -48.2,62.22zm-15.65 -359.91c-102.84,27.1 -104.68,258.89 -58.41,348.96 68.87,134.06 187.76,43.17 175.72,-164.64 -3.68,-63.52 -33.35,-206.45 -117.31,-184.32z"/>
   <path class="fil0" d="M2364.7 1563.11c-22.94,0 -40.25,-40.49 -46.38,-61.22 -13.5,-45.65 -13.09,-80.76 -13.09,-128.45 0,-46.93 21.2,-127.39 62.3,-127.39 16.06,0 54.16,76.93 53.87,110.34 -0.45,52.01 10.19,75.41 -9.72,146.11 -6.25,22.21 -19.94,60.61 -46.99,60.61zm-16.49 -360.27c-72.13,22.87 -90.18,132 -84.59,224.49 4.62,76.49 34,205.73 118.96,184.8 88.24,-21.73 110.11,-236.65 55.76,-349.11 -13.66,-28.25 -45.06,-74.47 -90.13,-60.19z"/>
   <path class="fil6" d="M332.8 1180.94c10.83,6.14 138.87,1.21 159.39,-0.64 46.5,-4.17 99.78,-12.56 142.27,-24.42 52.05,-14.52 201.37,-66.31 234.07,-99.5 -7.89,-7.85 -158.33,-70.41 -163.37,-69.13 -1.77,0.45 -132.73,133.78 -316.56,180.38 -7.8,1.98 -51.37,10.49 -55.8,13.31z"/>
   <path class="fil2" d="M769.1 938.86c41.22,7.72 157.68,-16.86 195.27,-28.37 97.69,-29.89 214.18,-110.45 247.02,-211.53 26.1,-80.33 -5.17,-125.2 -51.65,-156.39 -2.59,66.64 10.24,86.25 -28.3,164.22 -10.23,20.69 -26.95,43.92 -40.1,59.06 -17.97,20.69 -31.52,32.22 -50.66,48.44 -55.45,46.99 -208.24,118.28 -271.57,124.57z"/>
   <path class="fil0" d="M6422.92 1229.07l22.65 0c17.69,0 36.22,19.25 39.65,33.97l-107.62 0c4.54,-16.99 22.93,-33.97 45.31,-33.97zm-101.19 84.15l216.08 0.26c2.1,-77.43 -28.54,-134.24 -106.43,-133.5 -70.05,0.66 -106.47,62.06 -109.65,133.24z"/>
   <path class="fil0" d="M1347.93 362.5c-6.14,-5.31 -37.1,-55.55 -42.44,-64.79 -21.02,-36.36 5.84,-46.33 39.77,-47.1 98.81,-2.21 24.2,69.83 2.67,111.89zm-21.02 -151.33c-69.61,12.59 -83.67,56.39 -53.84,110.42l55.52 91.82c25.38,37.61 49.16,-22.54 69.07,-54.64 10.22,-16.48 30.63,-44.89 34.64,-64.32 13.21,-64.05 -43.44,-94.48 -105.4,-83.27z"/>
   <polygon class="fil7" points="1013.95,1817.92 1172.47,1817.63 1172.03,1721.45 1013.68,1721.66 "/>
   <polygon class="fil7" points="986.79,1312.83 1143.75,1312.55 1143.1,1215.68 985.72,1216.1 "/>
   <polygon class="fil7" points="995.12,1564.81 1152.5,1564.64 1152.43,1468.85 993.74,1469.12 "/>
   <polygon class="fil7" points="941.67,1439.11 1099.77,1439.09 1099.75,1344.17 941.5,1344.29 "/>
   <polygon class="fil7" points="1086.82,1689.42 1245.24,1687.88 1244.92,1595.1 1234.03,1594.47 1098.81,1594.43 1086.91,1594.71 "/>
   <path class="fil2" d="M1081.82 1039.9c-64.56,0.01 -99.02,-3.38 -163.82,-7.94 45.02,21.8 119.72,49.18 170.53,71.37 17.75,7.75 40.59,19.31 58.42,24.08 10.98,-5.5 38.81,-24.46 43.04,-34.22l0 -68.96c-17.39,1.54 -33.42,6.94 -50.9,9.73 -16.09,2.57 -40.72,5.83 -57.27,5.94z"/>
   <polygon class="fil7" points="830.85,1315.13 960.43,1314.59 960.43,1213.48 830.82,1213.42 830.83,1311.16 "/>
   <polygon class="fil7" points="932.14,1691.62 1061.62,1690.56 1061.18,1591.71 1050.66,1590.59 943.04,1590.44 932.16,1591.32 "/>
   <polygon class="fil7" points="858.67,1820.17 987.37,1819.38 987.1,1718.92 858.11,1719.77 "/>
   <polygon class="fil7" points="839.68,1564.62 967.55,1564.62 967.3,1465.95 839.61,1465.95 "/>
   <polygon class="fil7" points="786.85,1439.2 916.31,1437.53 916.24,1342.11 786.73,1342.03 "/>
   <path class="fil7" d="M1272.34 1592.41c-2.11,15.84 -3.01,86.05 0.87,99.24l119.43 -0.27 -0.57 -99.12 -119.74 0.15z"/>
   <polygon class="fil7" points="1199.18,1820.1 1319.97,1820.06 1320.06,1720.68 1198.66,1721.88 "/>
   <polygon class="fil7" points="1170.28,1314.58 1291.48,1314.31 1290.6,1215.66 1170.15,1216.1 "/>
   <path class="fil7" d="M1179.75 1564.76l119.14 -0.03c2.9,-14.13 3.13,-83 -0.18,-96.53l-119.74 0.47 0.78 96.1z"/>
   <polygon class="fil7" points="1126.18,1439.12 1247.35,1439.12 1247.35,1347.96 1247.33,1344.17 1126.06,1344.19 1126.01,1347.96 "/>
   <polygon class="fil7" points="708.97,1312.84 804.47,1312.75 803.67,1215.67 707.67,1215.83 "/>
   <polygon class="fil7" points="736.37,1817.93 832.73,1817.53 832.34,1721.47 736.1,1721.64 "/>
   <polygon class="fil7" points="717.55,1564.8 813.17,1564.77 813.11,1468.82 716.14,1469.09 "/>
   <polygon class="fil7" points="663.47,1438.96 760.5,1439.12 760.51,1347.96 760.48,1344.09 663.4,1345.27 "/>
   <polygon class="fil7" points="808.79,1689.45 905.95,1688.57 905.51,1594.54 808.89,1594.49 "/>
   <polygon class="fil7" points="1318.52,1312.77 1390.48,1312.68 1389.74,1215.65 1317.7,1216.31 "/>
   <polygon class="fil7" points="619.44,1564.61 689.97,1564.62 689.98,1469.69 689.95,1465.94 619.3,1465.97 "/>
   <polygon class="fil7" points="610.82,1312.08 681.23,1312.08 681.09,1213.42 610.47,1213.42 "/>
   <polygon class="fil7" points="1273.73,1439.11 1346.48,1439.12 1346.48,1347.96 1346.46,1344.17 1273.57,1344.24 "/>
   <polygon class="fil7" points="1326.67,1564.68 1399.04,1564.01 1398.83,1468.93 1326.56,1468.82 "/>
   <polygon class="fil7" points="712.66,1689.31 778.79,1689.37 782.58,1689.36 782.22,1590.55 712.75,1591.01 "/>
   <polygon class="fil7" points="640.18,1817.44 709.78,1816.52 709.54,1719.06 639.15,1718.87 "/>
   <polygon class="fil7" points="566.56,1439.07 637.18,1438.73 637.01,1341.97 566.46,1342.32 "/>
   <path class="fil8" d="M1347.93 362.5c21.53,-42.06 96.14,-114.1 -2.67,-111.89 -33.93,0.76 -60.78,10.74 -39.77,47.1 5.34,9.24 36.3,59.48 42.44,64.79z"/>
   <polygon class="fil7" points="1420.08,1689.39 1491.81,1688.99 1491.56,1594.56 1418.99,1594.86 "/>
   <polygon class="fil7" points="1346.47,1817.69 1417,1817.92 1416.39,1721.31 1346.33,1722.64 "/>
   <polygon class="fil7" points="1443.72,1818.01 1511.52,1817.09 1511.53,1720.96 1443.29,1720.8 "/>
   <polygon class="fil7" points="1417.65,1312.79 1483.03,1312.3 1482.52,1215.75 1416.83,1216.31 "/>
   <polygon class="fil7" points="1519.2,1689.43 1584.38,1688.48 1584.02,1592.41 1518.19,1592.53 "/>
   <polygon class="fil7" points="1426.21,1564.72 1491.85,1564.43 1490.82,1468.24 1425.36,1468.73 "/>
   <polygon class="fil7" points="1372.86,1439.13 1439.03,1438.96 1439.02,1344.22 1372.71,1344.24 "/>
   <polygon class="fil7" points="549.19,1817.91 612.9,1817.93 612.26,1721.42 548.88,1721.52 "/>
   <polygon class="fil7" points="529.47,1564.5 593.12,1564.62 592.75,1468.77 529.41,1469.27 "/>
   <polygon class="fil7" points="522.4,1312.85 584.3,1312.79 584.3,1215.73 522.4,1215.72 "/>
   <polygon class="fil7" points="624.58,1689.35 687.31,1688.85 687.09,1594.59 623.69,1595.18 "/>
   <polygon class="fil7" points="478.42,1439.17 540.22,1438.18 540.22,1344.39 478.3,1344.42 "/>
   <polygon class="fil7" points="1510.55,1312.86 1568.33,1312.41 1567.75,1215.78 1509.35,1215.86 "/>
   <path class="fil7" d="M1519.27 1564.83l56.32 -0.78c4,-14.32 1.93,-75.78 1.52,-95.13l-59.03 0.48 1.19 95.42z"/>
   <polygon class="fil7" points="1465.45,1439.17 1524.18,1438.73 1524.19,1344.28 1465.26,1344.17 "/>
   <polygon class="fil7" points="1612.11,1689.44 1670.25,1689 1670,1594.61 1610.64,1594.52 "/>
   <polygon class="fil7" points="1538.11,1817.83 1595.43,1817.92 1594.82,1721.38 1537.85,1721.85 "/>
   <polygon class="fil7" points="446.01,1315.07 496.18,1314.98 496.18,1213.43 445.98,1213.57 "/>
   <polygon class="fil7" points="547.05,1691.42 597.52,1691.14 597.27,1590.95 586.22,1590.59 557.88,1590.42 547.07,1591.45 "/>
   <path class="fil7" d="M502.39 1564.17c4.33,-15.43 1.77,-77.15 1.74,-97.64l-11.37 -0.58 -28.35 -0.27 -10.39 1.6 0.84 99.86 47.53 -2.97z"/>
   <polygon class="fil7" points="401.84,1439.17 452.09,1437.83 452.01,1342.21 401.72,1342.27 "/>
   <polygon class="fil7" points="474.38,1820.07 522.57,1819.1 522.36,1719.09 473.94,1719.85 "/>
   <path class="fil8" d="M1213.62 1134.44c-17.46,4.88 -36.95,25.76 -50.92,33.99 -16.26,9.57 -43.33,2.02 -57.57,4.78 -3.45,0.67 -4.51,0.95 -8.27,3.56 -10.7,7.43 2.83,-4.57 -5.27,5.2l306 -0.13c-10.6,-13.44 -26.27,-8.89 -52.4,-8.88 -18.88,0 -37.77,-0.06 -56.64,0 -24.69,0.09 -31.62,3.58 -46.42,-10.63 -9.76,-9.37 -22.46,-17.46 -28.51,-27.89z"/>
   <path class="fil9" d="M1067.61 464.08l41.11 8.18c13.87,3.26 24.73,9.84 37.92,12.07l0.1 -102.09c-4.25,2.37 -16.6,13.63 -21.48,18.34 -6.65,6.43 -10.98,14.82 -17.52,22.16 -7.54,8.45 -13,9.83 -20.18,19.42 -8.81,11.78 -9.5,11.68 -19.95,21.91z"/>
   <polygon class="fil7" points="1593.7,1312.83 1630.75,1311.82 1630.37,1218.36 1619.89,1217.89 1605.73,1217.85 1593.78,1218.15 "/>
   <path class="fil7" d="M1603.48 1470.74c-2.13,15.36 -2.93,80.58 0.96,93.93l34.95 -0.11 -0.66 -94.04 -35.24 0.22z"/>
   <polygon class="fil7" points="1622.08,1818 1659.37,1817.51 1658.63,1725.13 1621.82,1725.02 "/>
   <polygon class="fil7" points="1549.55,1438.84 1586.63,1439.06 1586.65,1346.32 1549.44,1347.49 "/>
   <polygon class="fil7" points="1697.63,1689.41 1731.92,1688.67 1731.94,1597.11 1696.51,1597.22 "/>
   <polygon class="fil7" points="392.75,1312.13 420.53,1311.86 420.62,1213.49 392.39,1213.42 "/>
   <polygon class="fil7" points="493.77,1689.49 521.86,1688.93 521.28,1590.87 493.84,1590.59 "/>
   <polygon class="fil7" points="348.47,1439.07 376.47,1438.36 376.33,1342.18 348.36,1342.3 "/>
   <polygon class="fil7" points="401.33,1564.68 427.85,1564.32 427.84,1466.08 401.24,1465.96 401.19,1469.69 "/>
   <polygon class="fil7" points="422.1,1817.39 447.62,1817.2 447.18,1718.95 421.06,1718.87 "/>
   <polygon class="fil7" points="1759.56,1689.39 1784.4,1689.24 1784.06,1594.57 1758.22,1594.59 "/>
   <path class="fil0" d="M1229.15 146.85c-17.31,4.88 -17.97,18.83 -17.08,37.6 0.79,16.57 7.27,32.87 27.13,27.25 22.49,-6.36 21.85,-73.84 -10.05,-64.85z"/>
   <polygon class="fil7" points="1613.03,1439.15 1637.32,1438.97 1637.32,1344.28 1612.89,1344.17 1612.83,1347.96 "/>
   <polygon class="fil7" points="1685.82,1817.72 1710.01,1817.29 1709.64,1721.62 1685.61,1722.13 "/>
   <path class="fil0" d="M1458.53 146.9c-22.95,9.33 -23.52,74.95 12.57,64.44 15.44,-4.49 12.54,-21.5 12.1,-41.21 -0.36,-16.26 -9.41,-29.44 -24.67,-23.23z"/>
   <polygon class="fil7" points="1658.03,1312.81 1681.3,1312.32 1680.79,1215.9 1656.96,1215.99 "/>
   <polygon class="fil7" points="1666.72,1564.7 1690.16,1564.44 1688.76,1468.64 1665.89,1468.84 "/>
  </g>
 </g>
</svg>
