<?xml version="1.0" encoding="UTF-8"?>
<!DOCTYPE svg PUBLIC "-//W3C//DTD SVG 1.1//EN" "http://www.w3.org/Graphics/SVG/1.1/DTD/svg11.dtd">
<!-- Creator: CorelDRAW 2017 -->
<svg xmlns="http://www.w3.org/2000/svg" xml:space="preserve" width="4.99116in" height="5.08598in" version="1.1" style="shape-rendering:geometricPrecision; text-rendering:geometricPrecision; image-rendering:optimizeQuality; fill-rule:evenodd; clip-rule:evenodd"
viewBox="0 0 4301.76 4383.49"
 xmlns:xlink="http://www.w3.org/1999/xlink">
 <defs>
  <style type="text/css">
   <![CDATA[
    .fil0 {fill:black}
    .fil4 {fill:#0000FE}
    .fil5 {fill:#0CB04A}
    .fil3 {fill:#616264}
    .fil1 {fill:#85C441}
    .fil6 {fill:#BEBEBE}
    .fil2 {fill:#D9E021}
    .fil7 {fill:#F58220}
   ]]>
  </style>
 </defs>
 <g id="Layer_x0020_1">
  <metadata id="CorelCorpID_0Corel-Layer"/>
  <g id="_2804869709088">
   <path class="fil0" d="M2842.85 4083.45l288.56 0 -0.27 236.23 -288.23 0 -0.06 -236.23zm-501.97 -4.45l0.88 240.68 -307.39 -0.18 -0.55 -209.52c-0.1,-35.6 0.73,-31.81 35.21,-31.44 90.58,0.96 181.25,0.46 271.86,0.46zm-1217.94 20.9l0.69 -20.91 114.05 0.01 1.21 20.89 -0.18 219.79 -115.39 0 -0.38 -219.78zm2875.23 5.35l1.21 -20.22 55.5 0.03 1.88 20.17 -0.32 209.1 -58.21 0 -0.06 -209.08zm-151.6 -11.64l89.66 0 -0.02 220.71 -89.58 0 -0.06 -220.71zm-199.05 11.64l1.39 -20.23 134.13 0.04 1.88 20.17 -0.32 209.1 -137.12 0 0.03 -209.08zm-224.17 -21.57l21.08 -0.27 120.24 0.04 20.75 0.45 -0 229.87 -162.06 0.56 -0 -230.65zm-230.24 21.57l1.21 -20.22 165.32 0.03 1.84 20.17 -0.32 209.1 -168.08 0 0.02 -209.08zm-789.38 0l1.2 -20.22 374.27 0.03 2.01 20.17 -0.32 209.1 -377.43 0 0.27 -209.08zm-658.69 0l1.21 -20.22 227.54 0.09 0.97 228.06 -20.22 1.38 -209.77 -0.23 0.27 -209.08zm-229.99 -26.25l167.15 0 0.75 233.9 -166.24 -0 -1.66 -233.89zm-214.36 26.25l1.2 -20.22 149.47 0.03 2.01 20.17 -0.32 209.1 -152.31 0 -0.05 -209.08zm-303.18 -26.25l62.59 0 0.75 233.9 -61.98 -0 -1.37 -233.89zm2017.92 -300.49l5.55 -0.03 282.68 -0.03 0 236.23 -282.68 -0 -5.55 -0.05 0 -236.11zm-805.12 16.39l1.11 -20.35c90.75,0.02 181.23,0.6 271.62,-0.42 33.39,-0.38 35.18,-3.73 35.24,30.84 0.04,23.21 -0.55,46.84 -0.55,70.19 0,45.89 0,91.79 0,137.68 -45.53,5.14 -246.76,1.91 -307.36,1.83l-0.05 -219.78zm-913.64 -19.81l118.36 -0.58 1.72 20.36 -0.29 219.8 -119.9 -0.26 0.11 -239.33zm2874.02 8.71l42.25 0 20.41 0.69 -0.01 223.97 -20.44 1.04 -42.24 -0.17 0.02 -225.52zm-146.38 5.35l84.36 0 0.05 220.17 -84.41 0 0 -220.17zm-203.88 -5.35l141.94 0 -0.02 225.52 -141.94 0 0.03 -225.52zm-219.56 -5.35l157.54 0 0.06 230.87 -157.38 0 -0.22 -230.87zm-235.24 5.35l173.22 0 0.06 225.52 -173.22 0 -0.06 -225.52zm-788.26 1.15l20.16 -1.38 355.82 0.23 0.06 225.52 -376.04 -0.09 0 -224.28zm-659.76 -1.09l5.56 -0.03 225.17 -0.03 0 225.52 -225.17 0 -5.56 -0.06 0 -225.41zm-63.45 -9.29l1.44 234.76 -166.19 -0.32c0.01,-275.91 -17.91,-234.71 66.47,-234.44 32.75,0.1 65.53,0 98.28,0zm-375.73 9.24l131.08 0 20.26 0.83 -0.01 223.62 -20.24 1.28 -131.03 -0.21 -0.06 -225.52zm-308.43 11.1l1.11 -20.35c87.75,0.02 65.8,-35.55 65.8,232.92l-66.91 1.86 0 -214.43zm2781.22 -309.29l56.74 0 1.33 227.82 -56.63 0 -1.44 -227.82zm-570.83 -1.46l158.46 0 -0.15 229.28 -156.2 0 -2.12 -229.28zm-234.24 1.46l171.37 0.06 0.88 227.39 -170.78 0.4 -1.47 -227.85zm-350.44 -1.46l288.33 0 -0.14 229.28 -286.4 0 -1.78 -229.28zm-438.94 1.46l375.38 0 1.57 227.82 -376.01 0 -0.95 -227.82zm-366.12 -6.81l304.34 -0 -0.46 234.63 -302.09 0 -1.78 -234.63zm-292.57 6.81l229.33 0 1.25 227.82 -228.98 0 -1.6 -227.82zm-230.2 -6.81l168.09 -0 -0.14 234.63 -166.17 0 -1.78 -234.63zm-213.24 7.25l149.95 -0.49 1.31 227.86 -150.31 -0.07 -0.95 -227.3zm-304.3 -7.25l63.6 -0 -0.2 234.63 -61.74 0 -1.66 -234.63zm2850.8 12.35l88.02 -1.66 -1.2 223.96c-106.05,-0.04 -86.83,50.1 -86.83,-222.3zm-198.71 222.27l-0.46 -227.84 138.78 0.15 0.72 212.85c0,23.28 -37.01,14.99 -61.78,14.86 -25.74,-0.13 -51.51,-0.01 -77.26,-0.01zm-2505.24 6.95l-21.3 0 0 -241.58 119.07 1.54c-0.05,57.01 -0.31,113.6 -0.03,170.11 0.17,34.35 10.26,60.55 -18.89,63.49 -10.61,1.07 -30.52,-1.08 -42.42,-0.76 -25.71,0.7 -25.7,7.2 -36.44,7.2zm2728.47 -530.52l58.27 0 0 225.52 -58.27 0 0 -225.52zm-150.45 6.53l20.13 -1.41 68.36 0.24 0 220.17 -88.5 -0.34 0.01 -218.65zm-199.8 -6.53l120.3 0 19.88 1.39 -0.04 222.31 -19.48 2.19 -120.65 -0.37 0 -225.52zm-219.56 0l157.54 0 0.06 225.52 -157.54 0 -0.05 -225.52zm-235.25 0l173.22 0 0.06 225.52 -173.22 0 -0.06 -225.52zm-350.25 0l288.23 0 0.06 225.52 -288.23 0 -0.06 -225.52zm-437.92 1.23l20.07 -1.48 355.83 0.25 0.05 225.52 -375.95 -0.1 0 -224.19zm-367.14 -6.58l287.91 0 19.6 1.35 -0.03 227.76 -19.54 2.12 -287.88 -0.36 -0.06 -230.87zm-292.64 5.46l21.18 -0.14 209.44 0.02 0.05 225.52 -230.67 -0.01 0 -225.39zm-230.13 -5.46l168.32 0 -0.27 230.87 -168.16 0 0.11 -230.87zm-209.11 5.35l145.45 0 1.69 225.52 -147.41 0 0.27 -225.52zm-181.79 -4.15l20.1 -1.45 99.72 0.24 0 230.87 -119.83 -0.27 0 -229.4zm-126.64 -1.2l47.43 0 19.6 1.35 -0.05 227.73 -19.51 2.15 -47.46 -0.36 0 -230.87zm1949.87 -299.65l287.97 0 0.25 235.19 -287.45 0 -0.77 -235.19zm-805 -5.35l287.9 0 19.97 1.06 -0.02 239.14 -19.94 1.65 -287.87 -0.27 -0.05 -241.57zm-913.29 1.59l19.71 -1.92 100.66 0.32 -0.92 241.57 -119.45 -0.36 0.01 -239.62zm2873.67 3.75l58.21 0 0.06 230.87 -58.27 0 0 -230.87zm-150.07 6.92l19.74 -1.88 68.36 0.32 0 225.52 -88.11 -0.46 0.01 -223.5zm-200.18 -6.92l120.62 0 19.92 1.11 -0.02 228.34 -19.88 1.72 -120.58 -0.29 -0.05 -230.87zm-219.56 0l157.87 0 -0.27 230.87 -157.38 0 -0.22 -230.87zm-235.24 0l173.22 0 0.06 230.87 -173.39 0 0.11 -230.87zm-787.8 1.63l19.68 -1.95 355.83 0.33 0.06 230.87 -375.57 -0.13 0 -229.12zm-659.78 -1.12l20.8 -0.6 209.44 0.1 0.06 230.87 -230.29 -0.06 0 -230.3zm-230.61 -5.85l169.08 0 -0.84 234.48 -166.45 -0 -1.8 -234.47zm-209.01 5.35l146.76 0 0.38 230.87 -147.09 0 -0.06 -230.87zm-306.73 229.13l-1.71 -234.47 67.38 1.08c-0.11,266.74 22.91,233.39 -65.67,233.39zm1708.13 -330.4c78.08,0 90.29,9.89 128.56,-18.43l101.46 -73.31 88.16 76.38c10.05,7.99 24.75,15.35 42.54,15.35l266.61 0c26.64,0 39.98,5.65 51.72,20.83l-732.44 0.65c12.65,-20.62 26.14,-21.49 53.39,-21.49zm-162.06 32.11l-883.48 0c1.05,-0.75 2.79,-3 3.31,-1.96 0.53,1.04 2.6,-1.57 3.35,-1.93l300.07 -115.59c90.9,-44.57 137.8,-65.48 225.49,-122.36 60.81,-39.44 33.17,-22.06 174.26,32.4l182.09 75.81c19.99,9.11 44.11,16.44 62.88,26.61 -8.92,12.46 -63.02,46.24 -67.96,107.02zm-1688.94 -16.06c37.32,-11.22 97.12,-19.75 133.02,-28.97 49.86,-12.82 82.39,-25.22 127.67,-40.48 197.06,-66.41 376.12,-175.09 531.96,-307.36l91.22 -80.69c24.71,2.81 373.63,151.84 387.77,163.21 -16.17,24.74 -214.82,118.02 -259.48,136.89 -94.72,40.03 -188.14,71.14 -294.4,100.16 -262.64,71.75 -416.61,61.23 -670.41,65.44 -4.89,0.08 -22.73,0.62 -26.37,0.14l-21 -8.34zm1385.7 -353.2c43.58,2.94 100.74,7.63 143.85,12.9 27.35,3.34 48.59,2.23 75.93,3l156.82 5.51c129.27,0 223.11,-35.77 271.71,-37.45 0.01,209.09 17.13,158.63 -62.88,219.26 -42.43,32.15 -28.22,32.06 -78.34,10.96l-507.09 -214.18zm-629.84 -248.83c5.25,-21.68 13.6,-26.98 27.08,-41.84 13.06,-14.38 17.87,-20.47 30.31,-33.06l350.29 -385.22c21.3,-21.69 35.92,-42.31 57.48,-64.25 103.39,-105.17 246.65,-279.94 352.81,-388.03 66.67,-67.87 169.35,-105.52 263.81,-70.6 20.01,7.4 19.65,12.89 24.91,33.3 16.56,64.25 17.15,92.82 17.15,155.15 0,133.77 -80.74,273.68 -141.77,344.54 -152.44,176.98 -374.47,279.12 -598.39,355.87 -69.73,23.91 -320.08,92.01 -383.68,94.14zm1095.67 -226.78c-214.08,182.4 -534.21,261.66 -818.39,261.66l181.24 -57.97c261.79,-82.14 543.86,-244.76 678.26,-493.34 26.52,-49.05 50.95,-108.98 62.99,-176.3 20.64,-115.41 5.72,-127.92 5.35,-219.33 111.87,75.17 188.02,192.43 123.17,377.81 -49.01,140.1 -145.96,233.65 -232.62,307.48zm463.32 -566.14c36.3,42.54 78.01,111.69 122.36,68.58 6.69,-6.5 16.03,-19.82 24.04,-28.95l169.97 -200.32c34.94,-37.85 65.55,-75.72 97.4,-114.44l92.96 -120.66c-5.74,35.28 27.04,194.52 4.04,369.51 -15.32,116.6 -43.17,210.64 -80.03,303.8 -69.47,175.57 -196.51,333.62 -326.7,441.41 -261.75,216.72 -541.97,269.92 -887.89,239.41 -61.33,-5.41 -302.57,-24.15 -338.02,-40.3l241.58 -45.62c241.15,-62.49 476.52,-184.78 624.99,-382.28 63.22,-84.09 122.2,-181.25 136.78,-294.03 26.47,-204.74 -67.38,-306.9 -172.81,-388.97l0 -151.23 291.33 344.09zm-573.63 -295.93c20.43,-31.23 174.83,-195.71 190.07,-203.33l0 246.14c-68.12,-22.09 -101.09,-41.5 -190.07,-42.81zm662.57 256.84c-21.37,-37.71 -256.33,-286.39 -311.82,-380.54 -111.81,-189.73 -47.08,-355.98 -36.88,-593.39 4.54,-105.64 58.16,-182.97 120.5,-229.66 72.23,-54.1 159.36,-62.65 282.1,-59.41 94.85,2.51 174.36,40.4 233.77,108.36 30.57,34.97 44.34,69.41 57.38,118.38l32.76 308.61c7.6,119.48 12.07,179.76 -33.77,297.21 -23.9,61.24 -80.32,128.98 -121.44,175.47 -43.38,49.03 -199.16,242 -222.58,254.96zm-1823.12 898.95c0,41.83 35.67,48.06 69.32,52.12 40.56,4.89 70.25,6.74 113.65,6.74 -8.74,13.35 -20.67,19.08 -32.67,30.77 -56.14,54.73 -200.76,147.45 -272.26,186.85 -342.14,188.59 -672.68,191.17 -1052.02,244.86 -41.36,5.86 -75.03,9.39 -115.67,15.38 -11.32,1.67 -42.96,3.3 -54.13,8.81 -41.13,20.26 -31.79,91.23 26.4,91.23l815.52 0 0 219.39 -104.55 0 0 369.21 125.46 0 0 294.3 219.56 0 0 230.09 -172.51 0 0 369.21 3188.89 0 0 -305 177.74 0 0 -363.86 -219.56 0 0 -299.65 -135.92 0 0 -235.44 115.01 0 0 -363.86 -637.78 0c-3.91,-48.11 -41.74,-86.77 -73.35,-106.85 -41.64,-26.47 -90.32,-26.96 -156.67,-26.92 -47.48,0.03 -140.52,5.57 -182.64,-0.34 -22.2,-3.1 -48.84,-35.22 -78.93,-58.33 -8.76,-6.73 -20.72,-11.71 -20.72,-26.95 0,-217.86 -15.06,-191.88 34.33,-211.01 15.75,-6.1 29.95,-12.56 44.61,-18.55l232.64 -136.44 100.09 -84.83c11.76,-12.2 23.14,-20.46 32.94,-30.49l114.06 -134.74c12.23,-15.49 12.53,-16.58 23.97,-34.33 32.22,-49.96 67.75,-101.97 93.18,-156.11 123.04,-261.97 145.97,-473.53 113.57,-766.66l-59.05 -597.72c-3.63,-28.35 -4,-65.62 -10.3,-96.48 -66.51,-325.79 -411.91,-380.36 -646.17,-289.69 -49.68,19.23 -112.19,62.86 -146.43,106.96 -39.56,50.95 -65.05,97.17 -81.15,173.78l-24.2 237.43c-2.51,38.08 -9.04,77.17 -10.28,117.9 -2.08,68.05 -1.06,72.85 -25.27,102.56l-818.44 901.31c-12.79,14.15 -20.12,22.29 -33.24,35.54l-243.31 269.98c-36.49,44.69 -86.35,87.46 -122.38,131.58 -27.23,33.35 -111.32,107.64 -111.32,148.25z"/>
   <path class="fil1" d="M2811.87 1060.58l0 151.23c105.43,82.06 199.28,184.23 172.81,388.97 -14.58,112.78 -73.56,209.94 -136.78,294.03 -148.46,197.5 -383.84,319.79 -624.99,382.28l-241.58 45.62c35.45,16.15 276.69,34.9 338.02,40.3 345.92,30.52 626.14,-22.69 887.89,-239.41 130.18,-107.79 257.23,-265.83 326.7,-441.41 36.87,-93.17 64.71,-187.2 80.03,-303.8 23,-175 -9.78,-334.24 -4.04,-369.51l-92.96 120.66c-31.85,38.72 -62.46,76.58 -97.4,114.44l-169.97 200.32c-8.01,9.13 -17.35,22.46 -24.04,28.95 -44.35,43.11 -86.06,-26.04 -122.36,-68.58l-291.33 -344.09z"/>
   <path class="fil2" d="M2986.46 680.67c-15.56,-72.57 30.17,-129.27 72.2,-153.94 50.82,-29.83 132.36,-33.3 197.92,-23 59.43,9.33 115.09,36.35 136.48,96.07 11.57,32.29 10.45,68.88 3.37,101.19 -9.16,41.74 -19.96,46.66 -37.94,78.99 -27.93,50.21 -55.1,90.96 -86.08,141.81 -9.43,15.48 -33.48,60.22 -45.16,71.77 -60.81,60.15 -113.19,-74.37 -164.17,-158.03 -35.18,-57.75 -63.07,-91.6 -76.63,-154.86zm437.46 -272.9c0,-34.95 17.45,-62.98 51.88,-62.98 53.11,0 41.82,76.83 41.82,121.84 0,45.96 -93.7,63.9 -93.7,-26.76l0 -32.1zm-548.93 0c0,-78.76 97.44,-84.62 97.44,-5.35 0,30.66 8.14,101.66 -40.31,101.66 -62.13,0 -57.12,-45.86 -57.12,-96.31zm317.17 957.81c23.42,-12.97 179.2,-205.93 222.58,-254.96 41.13,-46.49 97.54,-114.23 121.44,-175.47 45.84,-117.45 41.38,-177.73 33.77,-297.21l-32.76 -308.61c-13.04,-48.97 -26.81,-83.41 -57.38,-118.38 -59.41,-67.96 -138.92,-105.85 -233.77,-108.36 -122.74,-3.24 -209.86,5.3 -282.1,59.41 -62.34,46.69 -115.96,124.02 -120.5,229.66 -10.2,237.4 -74.93,403.65 36.88,593.39 55.48,94.14 290.45,342.82 311.82,380.54z"/>
   <path class="fil3" d="M1544.21 2197.59c63.6,-2.13 313.94,-70.24 383.68,-94.14 223.92,-76.75 445.96,-178.9 598.39,-355.87 61.02,-70.85 141.77,-210.77 141.77,-344.54 0,-62.32 -0.58,-90.9 -17.15,-155.15 -5.26,-20.41 -4.9,-25.9 -24.91,-33.3 -94.46,-34.93 -197.14,2.72 -263.81,70.6 -106.16,108.09 -249.42,282.86 -352.81,388.03 -21.57,21.94 -36.18,42.55 -57.48,64.25l-350.29 385.22c-12.44,12.59 -17.25,18.68 -30.31,33.06 -13.49,14.86 -21.83,20.16 -27.08,41.84z"/>
   <path class="fil4" d="M809.35 2807.96c3.64,0.48 21.48,-0.06 26.37,-0.14 253.81,-4.21 407.77,6.31 670.41,-65.44 106.26,-29.03 199.68,-60.14 294.4,-100.16 44.65,-18.87 243.3,-112.15 259.48,-136.89 -14.15,-11.37 -363.06,-160.4 -387.77,-163.21l-91.22 80.69c-155.85,132.28 -334.91,240.96 -531.96,307.36 -45.29,15.26 -77.81,27.66 -127.67,40.48 -35.89,9.23 -95.7,17.75 -133.02,28.97l21 8.34z"/>
   <path class="fil5" d="M1821.49 2232.47c284.18,0 604.31,-79.26 818.39,-261.66 86.66,-73.84 183.61,-167.38 232.62,-307.48 64.85,-185.38 -11.31,-302.63 -123.17,-377.81 0.37,91.41 15.3,103.93 -5.35,219.33 -12.04,67.32 -36.47,127.26 -62.99,176.3 -134.4,248.59 -416.48,411.2 -678.26,493.34l-181.24 57.97z"/>
   <path class="fil0" d="M3192.95 862.6c-11.73,-23.23 -31.92,-55.08 -46.94,-79.82 -25.89,-42.64 -82.57,-99 -64.42,-146.2 7.31,-19.01 4.83,-11.33 14.35,-18.4 54.99,-40.91 282.83,-42.74 194.82,92.45l-92.67 146.21c-0.5,0.62 -2.19,3.75 -2.56,2.89 -0.37,-0.86 -1.7,1.93 -2.58,2.87zm-206.49 -181.93c13.56,63.26 41.44,97.1 76.63,154.86 50.97,83.66 103.35,218.18 164.17,158.03 11.68,-11.55 35.73,-56.29 45.16,-71.77 30.98,-50.85 58.15,-91.61 86.08,-141.81 17.98,-32.33 28.78,-37.25 37.94,-78.99 7.09,-32.31 8.2,-68.9 -3.37,-101.19 -21.39,-59.72 -77.05,-86.74 -136.48,-96.07 -65.56,-10.3 -147.11,-6.83 -197.92,23 -42.04,24.68 -87.76,81.38 -72.2,153.94z"/>
   <polygon class="fil6" points="2337.35,3115.59 2712.93,3115.72 2712.87,2884.85 2357.04,2884.52 2337.35,2886.47 "/>
   <polygon class="fil6" points="2403.46,4314.32 2780.89,4314.32 2781.2,4105.22 2779.2,4085.05 2404.93,4085.03 2403.73,4105.24 "/>
   <polygon class="fil6" points="2357.72,3713.42 2733.72,3713.42 2732.15,3485.6 2356.77,3485.6 "/>
   <polygon class="fil6" points="2577.36,4009.23 2953.4,4009.32 2953.34,3783.8 2597.52,3783.57 2577.36,3784.95 "/>
   <polygon class="fil6" points="2232.42,3415.27 2608.37,3415.37 2608.32,3189.85 2252.49,3189.6 2232.42,3191.08 "/>
   <path class="fil5" d="M2681.15 2660.6c50.11,21.1 35.91,21.18 78.34,-10.96 80.01,-60.63 62.89,-10.17 62.88,-219.26 -48.6,1.69 -142.44,37.45 -271.71,37.45l-156.82 -5.51c-27.33,-0.77 -48.58,0.35 -75.93,-3 -43.11,-5.27 -100.27,-9.97 -143.85,-12.9l507.09 214.18z"/>
   <polygon class="fil6" points="1969.88,3121.07 2257.75,3121.35 2277.69,3119.7 2277.71,2880.56 2257.73,2879.5 1969.83,2879.5 "/>
   <path class="fil6" d="M2210.36 4014.67c60.6,0.08 261.83,3.31 307.36,-1.83 0,-45.89 0,-91.79 0,-137.68 0,-23.35 0.59,-46.98 0.55,-70.19 -0.05,-34.57 -1.85,-31.22 -35.24,-30.84 -90.4,1.02 -180.88,0.44 -271.62,0.42l-1.11 20.35 0.05 219.78z"/>
   <path class="fil6" d="M2340.89 4079c-90.61,0 -181.28,0.5 -271.86,-0.46 -34.49,-0.37 -35.32,-4.15 -35.21,31.44l0.55 209.52 307.39 0.18 -0.88 -240.68z"/>
   <polygon class="fil6" points="1992.43,3713.42 2294.52,3713.42 2294.98,3478.79 1990.64,3478.8 "/>
   <polygon class="fil6" points="1865.33,3415.37 2153.21,3415.72 2172.75,3413.6 2172.79,3185.85 2153.18,3184.5 1865.28,3184.5 "/>
   <polygon class="fil6" points="2842.91,4319.67 3131.15,4319.67 3131.41,4083.45 2842.85,4083.45 "/>
   <polygon class="fil6" points="3015.42,4014.62 3020.98,4014.67 3303.66,4014.67 3303.66,3778.45 3020.98,3778.48 3015.42,3778.5 "/>
   <polygon class="fil6" points="2775.6,3120.03 3063.05,3120.03 3062.8,2884.85 2774.83,2884.85 "/>
   <polygon class="fil6" points="2797.49,3713.42 3083.89,3713.42 3084.04,3484.15 2795.71,3484.15 "/>
   <polygon class="fil6" points="2670.4,3415.37 2958.63,3415.37 2958.57,3189.85 2670.34,3189.85 "/>
   <polygon class="fil6" points="1677.57,3115.66 1907.86,3115.72 1907.81,2884.85 1698.37,2884.75 1677.57,2885.35 "/>
   <polygon class="fil6" points="1744.77,4314.32 1954.54,4314.55 1974.76,4313.17 1973.79,4085.11 1746.24,4085.03 1745.04,4105.24 "/>
   <polygon class="fil6" points="1699.68,3713.42 1928.66,3713.42 1927.41,3485.6 1698.08,3485.6 "/>
   <polygon class="fil6" points="1917.61,4009.26 1923.16,4009.32 2148.34,4009.32 2148.34,3783.8 1923.16,3783.82 1917.61,3783.85 "/>
   <polygon class="fil6" points="1572.63,3415.35 1803.31,3415.37 1803.25,3189.85 1593.82,3189.82 1572.63,3189.96 "/>
   <polygon class="fil6" points="3125.04,3115.72 3298.43,3115.72 3298.37,2884.85 3125.15,2884.85 "/>
   <polygon class="fil6" points="1448.75,3113.97 1615.2,3113.98 1616.04,2879.5 1446.96,2879.5 "/>
   <polygon class="fil6" points="1469.66,3713.42 1635.83,3713.42 1635.96,3478.79 1467.88,3478.8 "/>
   <polygon class="fil6" points="3365.68,4009.32 3538.9,4009.32 3538.85,3783.8 3365.62,3783.8 "/>
   <polygon class="fil6" points="3020.65,3415.37 3193.88,3415.37 3193.82,3189.85 3020.59,3189.85 "/>
   <polygon class="fil6" points="1516.71,4312.89 1682.95,4312.89 1682.19,4079 1515.05,4079 "/>
   <path class="fil6" d="M1854.15 3774.56c-32.76,0 -65.53,0.1 -98.28,-0 -84.38,-0.27 -66.45,-41.47 -66.47,234.44l166.19 0.32 -1.44 -234.76z"/>
   <polygon class="fil6" points="3147.62,3713.46 3318.4,3713.06 3317.52,3485.67 3146.15,3485.6 "/>
   <polygon class="fil6" points="1342.4,3415.37 1510.56,3415.37 1510.83,3184.5 1342.51,3184.5 "/>
   <polygon class="fil6" points="3193.09,4314.32 3361.16,4314.32 3361.48,4105.22 3359.63,4085.05 3194.32,4085.03 3193.11,4105.24 "/>
   <path class="fil7" d="M3192.95 862.6c0.88,-0.94 2.21,-3.73 2.58,-2.87 0.37,0.86 2.06,-2.27 2.56,-2.89l92.67 -146.21c88.01,-135.19 -139.82,-133.36 -194.82,-92.45 -9.51,7.08 -7.03,-0.6 -14.35,18.4 -18.15,47.21 38.53,103.57 64.42,146.2 15.03,24.74 35.21,56.59 46.94,79.82z"/>
   <polygon class="fil6" points="3423.35,4314.33 3585.41,4313.76 3585.41,4083.9 3564.66,4083.45 3444.42,4083.4 3423.35,4083.67 "/>
   <polygon class="fil6" points="3360.61,3115.72 3517.99,3115.72 3518.26,2884.85 3360.39,2884.85 "/>
   <polygon class="fil6" points="3601.09,4009.32 3758.47,4009.32 3758.41,3778.45 3600.87,3778.45 "/>
   <polygon class="fil6" points="3382.5,3713.42 3538.7,3713.42 3538.85,3484.15 3380.39,3484.15 "/>
   <polygon class="fil6" points="3255.9,3415.37 3413.44,3415.37 3413.38,3189.85 3255.84,3189.85 "/>
   <polygon class="fil6" points="1300.74,4314.32 1453.05,4314.32 1453.37,4105.22 1451.36,4085.05 1301.89,4085.03 1300.68,4105.24 "/>
   <polygon class="fil6" points="1255.58,3713.35 1405.89,3713.42 1404.58,3485.57 1254.63,3486.05 "/>
   <polygon class="fil6" points="1478.48,4009.32 1609.51,4009.53 1629.76,4008.25 1629.77,3784.63 1609.5,3783.8 1478.42,3783.8 "/>
   <polygon class="fil6" points="1238.01,3115.72 1385.09,3115.72 1384.71,2884.85 1237.95,2884.85 "/>
   <polygon class="fil6" points="1133.13,3415.37 1280.54,3415.37 1278.85,3189.85 1133.4,3189.85 "/>
   <polygon class="fil6" points="3580.01,3115.72 3700.6,3116.01 3720.48,3114.29 3720.5,2885.95 3700.58,2884.85 3579.96,2884.85 "/>
   <polygon class="fil6" points="3820.41,4009.32 3962.35,4009.32 3962.37,3783.8 3820.43,3783.8 "/>
   <path class="fil6" d="M3602.43 3713.42c25.75,0 51.52,-0.12 77.26,0.01 24.77,0.13 61.78,8.42 61.78,-14.86l-0.72 -212.85 -138.78 -0.15 0.46 227.84z"/>
   <polygon class="fil6" points="3475.4,3415.37 3596.06,3415.74 3615.54,3413.55 3615.58,3191.24 3595.7,3189.85 3475.4,3189.85 "/>
   <polygon class="fil6" points="3647.48,4314.32 3784.6,4314.32 3784.92,4105.22 3783.04,4085.05 3648.91,4085.02 3647.52,4105.24 "/>
   <polygon class="fil6" points="1056.54,3120.71 1175.99,3121.07 1176.91,2879.5 1076.25,2879.18 1056.54,2881.09 "/>
   <polygon class="fil6" points="1296.56,4014.41 1416.46,4014.67 1416.75,3794.87 1415.03,3774.51 1296.66,3775.09 "/>
   <path class="fil6" d="M1097.19 3720.37c10.73,0 10.73,-6.49 36.44,-7.2 11.9,-0.32 31.81,1.83 42.42,0.76 29.15,-2.94 19.07,-29.14 18.89,-63.49 -0.28,-56.51 -0.02,-113.1 0.03,-170.11l-119.07 -1.54 0 241.58 21.3 0z"/>
   <polygon class="fil6" points="1123.32,4319.67 1238.72,4319.67 1238.89,4099.88 1237.68,4079 1123.63,4078.99 1122.94,4099.89 "/>
   <polygon class="fil6" points="951.6,3415.1 1071.43,3415.37 1071.43,3184.5 971.71,3184.26 951.6,3185.7 "/>
   <path class="fil7" d="M2639.36 2783.57c-27.25,0 -40.74,0.87 -53.39,21.49l732.44 -0.65c-11.74,-15.18 -25.08,-20.83 -51.72,-20.83l-266.61 0c-17.78,0 -32.48,-7.36 -42.54,-15.35l-88.16 -76.38 -101.46 73.31c-38.27,28.32 -50.47,18.43 -128.56,18.43z"/>
   <path class="fil3" d="M2529.58 1108.74c88.97,1.31 121.95,20.72 190.07,42.81l0 -246.14c-15.24,7.62 -169.64,172.1 -190.07,203.33z"/>
   <polygon class="fil6" points="3780.14,3115.26 3868.25,3115.72 3868.25,2890.2 3799.88,2889.88 3780.14,2891.76 "/>
   <polygon class="fil6" points="3846.63,4314.32 3936.21,4314.32 3936.23,4093.61 3846.57,4093.61 "/>
   <path class="fil6" d="M3801.14 3491.15c0,272.41 -19.23,222.27 86.83,222.3l1.2 -223.96 -88.02 1.66z"/>
   <polygon class="fil6" points="3675.2,3415.03 3763.7,3415.37 3763.7,3195.2 3695.34,3194.96 3675.21,3196.37 "/>
   <polygon class="fil6" points="4024.31,4009.32 4108.72,4009.32 4108.67,3789.15 4024.31,3789.15 "/>
   <path class="fil6" d="M1169.99 4009.32l66.91 -1.86c0,-268.47 21.95,-232.9 -65.8,-232.92l-1.11 20.35 0 214.43z"/>
   <path class="fil6" d="M931.22 3113.97c88.58,0 65.56,33.35 65.67,-233.39l-67.38 -1.08 1.71 234.47z"/>
   <polygon class="fil6" points="824.96,3415.37 872.43,3415.73 891.94,3413.58 891.99,3185.85 872.4,3184.5 824.96,3184.5 "/>
   <polygon class="fil6" points="951.99,3713.42 1013.73,3713.42 1013.93,3478.79 950.33,3478.8 "/>
   <polygon class="fil6" points="998.87,4312.89 1060.85,4312.89 1060.1,4079 997.5,4079 "/>
   <polygon class="fil6" points="4170.66,4009.32 4212.9,4009.49 4233.34,4008.45 4233.35,3784.48 4212.93,3783.8 4170.69,3783.8 "/>
   <polygon class="fil6" points="3930.21,3115.72 3988.49,3115.72 3988.43,2884.85 3930.21,2884.85 "/>
   <polygon class="fil6" points="3998.23,4314.32 4056.44,4314.32 4056.76,4105.22 4054.88,4085.05 3999.38,4085.03 3998.17,4105.24 "/>
   <path class="fil0" d="M2874.98 407.77c0,50.45 -5.01,96.31 57.12,96.31 48.46,0 40.31,-71 40.31,-101.66 0,-79.27 -97.44,-73.41 -97.44,5.35z"/>
   <polygon class="fil6" points="3825.66,3415.37 3883.93,3415.37 3883.93,3189.85 3825.66,3189.85 "/>
   <path class="fil0" d="M3423.91 407.77l0 32.1c0,90.66 93.7,72.72 93.7,26.76 0,-45.01 11.29,-121.84 -41.82,-121.84 -34.42,0 -51.88,28.03 -51.88,62.98z"/>
   <polygon class="fil6" points="3952.65,3713.42 4009.28,3713.42 4007.95,3485.6 3951.21,3485.6 "/>
  </g>
 </g>
</svg>
